<svg xmlns="http://www.w3.org/2000/svg" width="50" height="37.5" viewBox="0 0 50 37.5">
  <g id="people-fill" transform="translate(0 -4.5)">
    <path id="Trazado_59" data-name="Trazado 59" d="M21.875,42a3.061,3.061,0,0,1-3.125-3.125c0-3.125,3.125-12.5,15.625-12.5S50,35.75,50,38.875A3.061,3.061,0,0,1,46.875,42Zm12.5-18.75A9.375,9.375,0,1,0,25,13.875,9.375,9.375,0,0,0,34.375,23.25ZM16.3,42a6.993,6.993,0,0,1-.675-3.125,14.913,14.913,0,0,1,6.05-11.625,19.765,19.765,0,0,0-6.05-.875C3.125,26.375,0,35.75,0,38.875A3.061,3.061,0,0,0,3.125,42ZM14.062,23.25A7.813,7.813,0,1,0,6.25,15.438,7.813,7.813,0,0,0,14.062,23.25Z" transform="translate(0 0)" fill="#fff" fill-rule="evenodd"/>
  </g>
</svg>
