<svg xmlns="http://www.w3.org/2000/svg" width="50" height="50" viewBox="0 0 50 50">
  <g id="building-solid" transform="translate(-4 -3)">
    <path id="Trazado_57" data-name="Trazado 57" d="M37,8H22V49.667H40.333V11.333A3.333,3.333,0,0,0,37,8ZM28.667,36.333H25.333V33h3.333Zm0-8.333H25.333V24.667h3.333Zm0-8.333H25.333V16.333h3.333Zm6.667,16.667H32V33h3.333Zm0-8.333H32V24.667h3.333Zm0-8.333H32V16.333h3.333Z" transform="translate(13.667 3.333)" fill="#fff"/>
    <path id="Trazado_58" data-name="Trazado 58" d="M27.133,3H7.533A3.533,3.533,0,0,0,4,6.533V53h8.333V48h10v5h8.333V6.533A3.533,3.533,0,0,0,27.133,3Zm-14.8,36.667H9V36.333h3.333Zm0-8.333H9V28h3.333Zm0-8.333H9V19.667h3.333Zm0-8.333H9V11.333h3.333Zm6.667,25H15.667V36.333H19Zm0-8.333H15.667V28H19ZM19,23H15.667V19.667H19Zm0-8.333H15.667V11.333H19Zm6.667,25H22.333V36.333h3.333Zm0-8.333H22.333V28h3.333Zm0-8.333H22.333V19.667h3.333Zm0-8.333H22.333V11.333h3.333Z" transform="translate(0)" fill="#fff"/>
  </g>
</svg>
