<svg xmlns="http://www.w3.org/2000/svg" width="55" height="34.749" viewBox="0 0 55 34.749">
  <path id="handshake-o" d="M4.583,21.389a1.368,1.368,0,0,0,1.337-.764,1.623,1.623,0,0,0,0-1.528,1.368,1.368,0,0,0-1.337-.764,1.368,1.368,0,0,0-1.337.764,1.623,1.623,0,0,0,0,1.528A1.368,1.368,0,0,0,4.583,21.389ZM39.747,20l-.92-1.193q-.681-.883-.99-1.289t-.907-1.17q-.6-.764-1.014-1.265t-.967-1.121q-.552-.62-1.074-1.17L30.89,16.138a6.219,6.219,0,0,1-4.977,2.2,6.233,6.233,0,0,1-4.906-2.341,5.836,5.836,0,0,1,.047-7.52L25.28,3.557a4.658,4.658,0,0,0-1.218-.394,7.438,7.438,0,0,0-1.134-.144q-.442-.012-1.349.012t-1.17.024a5.146,5.146,0,0,0-3.772,1.575L12.867,8.4h-3.7V21.389q.119,0,.5-.012t.526,0q.144.012.466.047a1.738,1.738,0,0,1,.489.108q.167.073.417.2a1.754,1.754,0,0,1,.442.322l7.09,6.971q2.745,2.649,5.419,2.649A4.033,4.033,0,0,0,27.5,30.557a3.3,3.3,0,0,0,2.686-.191,3.244,3.244,0,0,0,1.731-2.029,3.781,3.781,0,0,0,3.031-1.051,4.447,4.447,0,0,0,.86-1.086,2.067,2.067,0,0,0,.335-1.205,1.526,1.526,0,0,0,1.027.238,3.426,3.426,0,0,0,1.838-.5,3.043,3.043,0,0,0,1.181-1.265A3.284,3.284,0,0,0,39.747,20Zm3.795,1.384h2.292V9.167h-2.22l-3.748-4.3a5.1,5.1,0,0,0-4.035-1.815H31.845a4.368,4.368,0,0,0-3.485,1.6l-4.99,5.8a2.691,2.691,0,0,0-.669,1.791,2.752,2.752,0,0,0,.645,1.791,3.354,3.354,0,0,0,2.626,1.242,3.3,3.3,0,0,0,2.649-1.17l4.608-5.2a1.723,1.723,0,0,1,1.277-.513,1.528,1.528,0,0,1,1.325,1.994q.382.454,1.337,1.5T38.6,13.513q.692.86,1.969,2.518t1.54,2.017a6.472,6.472,0,0,1,1.433,3.343Zm6.875,0a1.368,1.368,0,0,0,1.337-.764,1.623,1.623,0,0,0,0-1.528,1.552,1.552,0,0,0-2.674,0,1.623,1.623,0,0,0,0,1.528A1.368,1.368,0,0,0,50.417,21.389ZM55,7.639V22.917a1.55,1.55,0,0,1-1.528,1.528H43.112a6.011,6.011,0,0,1-1.957,2.542,6.375,6.375,0,0,1-2.984,1.23,7.7,7.7,0,0,1-1.922,1.945A6.7,6.7,0,0,1,33.8,31.248a6.653,6.653,0,0,1-2.495,1.945,6.378,6.378,0,0,1-3.068.585,7.274,7.274,0,0,1-3.008.943,7.816,7.816,0,0,1-3.043-.335A12.664,12.664,0,0,1,19.4,33.108a13.885,13.885,0,0,1-2.47-1.934l-6.851-6.731H1.528a1.468,1.468,0,0,1-1.074-.454A1.466,1.466,0,0,1,0,22.917V6.875A1.468,1.468,0,0,1,.454,5.8a1.468,1.468,0,0,1,1.074-.454h10.05Q11.912,5.013,12.7,4.2t1.134-1.146q.347-.335,1.051-.955a7.136,7.136,0,0,1,1.205-.9Q16.59.93,17.307.6a5.9,5.9,0,0,1,1.48-.466A9.365,9.365,0,0,1,20.41,0H23.2a7.494,7.494,0,0,1,4.321,1.337A7.494,7.494,0,0,1,31.843,0h3.986a8.645,8.645,0,0,1,1.6.144A9.473,9.473,0,0,1,38.778.49a5.569,5.569,0,0,1,1.231.631q.646.428,1.062.739A9.292,9.292,0,0,1,42.1,2.8q.611.631.93,1t.979,1.146q.66.775.99,1.16h8.475A1.55,1.55,0,0,1,55,7.639Z" fill="#fff"/>
</svg>
