<svg xmlns="http://www.w3.org/2000/svg" width="41.801" height="50" viewBox="0 0 41.801 50">
  <path id="Icon_-_Gas" data-name="Icon - Gas" d="M60.26,50c-10.244-5.774-12.942-11.239-11.4-18.7,1.139-5.511,4.865-10,5.224-15.5a17.086,17.086,0,0,1,2.436,8.015A39.648,39.648,0,0,0,65.13,0S78.32,7.75,79.185,19.457c1.136-2.413,1.707-6.246.572-8.729C83.164,13.211,103.1,35.263,77.056,50c4.9-9.535,1.264-22.4-7.239-28.343.568,2.556-.428,12.085-4.189,16.271,1.042-7-.992-9.956-.992-9.956A22.545,22.545,0,0,1,61.23,35.85C58.756,39.465,57.042,43.3,60.26,50Z" transform="translate(-48.458)" fill="#373434"/>
</svg>
