<?xml version="1.0" standalone="no"?>
<!DOCTYPE svg PUBLIC "-//W3C//DTD SVG 20010904//EN"
 "http://www.w3.org/TR/2001/REC-SVG-20010904/DTD/svg10.dtd">
<svg version="1.0" xmlns="http://www.w3.org/2000/svg" width="64.73" height="50" viewBox="0 0 202.000000 156.000000"
 preserveAspectRatio="xMidYMid meet">

<g transform="translate(0.000000,156.000000) scale(0.100000,-0.100000)"
fill="#373434" stroke="none">
<path d="M884 1376 c-16 -12 -20 -29 -23 -100 -1 -47 -5 -86 -8 -86 -2 0 -21
11 -41 25 -48 33 -89 33 -103 1 -15 -33 -5 -48 76 -103 l70 -48 3 -128 c1 -70
1 -127 -2 -127 -2 0 -52 28 -110 61 l-106 62 0 41 c0 94 -12 147 -36 163 -22
14 -26 14 -50 -2 -25 -16 -26 -21 -21 -76 3 -32 2 -59 -3 -59 -4 0 -40 19 -79
41 -62 37 -75 40 -96 31 -18 -8 -25 -19 -25 -40 0 -33 14 -47 93 -92 32 -17
55 -35 52 -38 -3 -4 -27 -18 -53 -32 -39 -21 -47 -30 -47 -54 0 -18 8 -34 21
-42 18 -12 28 -10 90 20 110 52 100 53 218 -15 58 -33 106 -62 106 -64 0 -2
-49 -31 -109 -64 l-109 -61 -83 40 c-46 22 -88 40 -94 40 -21 0 -47 -38 -43
-62 2 -16 18 -31 50 -48 26 -14 50 -28 53 -32 3 -3 -23 -22 -58 -41 -35 -20
-69 -43 -76 -51 -17 -21 -10 -56 15 -72 22 -15 35 -10 136 49 l47 28 -6 -54
c-7 -67 7 -97 46 -97 16 0 33 6 39 13 6 7 14 54 18 105 l7 92 103 60 c56 33
105 60 108 60 3 0 6 -56 6 -125 l0 -124 -74 -51 c-78 -52 -94 -76 -76 -110 15
-28 57 -26 102 5 20 14 39 25 42 25 4 0 6 -31 6 -69 0 -38 4 -81 9 -94 12 -30
43 -42 71 -27 20 11 20 17 20 665 0 637 -1 655 -19 665 -26 13 -33 13 -57 -4z"/>
<path d="M1040 1258 l0 -126 67 -12 c304 -53 461 -392 299 -648 -62 -99 -198
-186 -308 -198 l-58 -7 0 -118 c0 -66 2 -119 4 -119 3 0 17 27 32 60 33 74 72
110 120 110 41 0 100 -28 149 -71 20 -18 38 -30 40 -28 2 3 0 22 -5 44 -21 91
-4 169 44 200 27 18 127 23 188 10 l31 -7 -35 43 c-68 84 -83 141 -54 197 15
28 84 72 153 96 l38 14 -30 7 c-53 14 -122 53 -149 85 -43 52 -33 107 34 196
l38 51 -93 -5 -94 -5 -37 37 -37 37 5 99 5 99 -44 -39 c-54 -47 -121 -75 -160
-66 -38 10 -88 66 -109 123 -9 27 -21 52 -26 58 -4 5 -8 -48 -8 -117z"/>
<path d="M1040 701 l0 -341 35 0 c94 0 216 82 270 182 40 74 47 196 16 279
-42 110 -155 199 -273 215 l-48 7 0 -342z"/>
</g>
</svg>
