<svg xmlns="http://www.w3.org/2000/svg" width="62.057" height="50" viewBox="0 0 62.057 50">
  <g id="Icon_-_Carpinteria" data-name="Icon - Carpinteria" transform="translate(0 0)">
    <path id="Trazado_38" data-name="Trazado 38" d="M155.4-199.1c-4.309,4.561-5.418,5.595-6.1,5.62a2.016,2.016,0,0,0-1.058.428,64.114,64.114,0,0,0-5.04,5.9c.05.076.958,1.084,2.016,2.218,1.915,2.041,1.94,2.041,2.949,1.89,1.663-.252,2.6.05,4.108,1.411,1.89,1.688,2.369,1.84,3.755,1.21.958-.428,1.411-.454,3.453-.3l2.344.151,3.906-3.856c3.881-3.856,3.906-3.881,3.352-4.335a2.341,2.341,0,0,0-1.21-.428c-.5,0-1.21-.58-3.049-2.445-4.007-4.108-5.519-6.6-5.569-9.123C159.227-203.184,159.176-203.158,155.4-199.1Zm1.588,5.317a87.816,87.816,0,0,1,6.376,7.485c.58,1.26-1.058,3.15-2.722,3.15-.806,0-1.436-.63-5.469-5.317-2.772-3.226-3.075-3.831-2.419-5.04a3.651,3.651,0,0,1,2.47-1.487C155.623-194.993,156.228-194.59,156.984-193.783Z" transform="translate(-107.281 202.403)" fill="#373434"/>
    <path id="Trazado_39" data-name="Trazado 39" d="M16.939-188.469c-2.621.479-4.461,1.537-8.165,4.738a5.576,5.576,0,0,0-2.344,4.057,3.771,3.771,0,0,1-2.974,3.2c-1.487.353-3.1,1.991-2.722,2.722a23.5,23.5,0,0,0,2.319,2.394l2.041,1.915,1.235-1.033c.958-.781,1.235-1.21,1.235-1.739a4.832,4.832,0,0,1,.277-1.436,7.55,7.55,0,0,1,2.621-2.848c.706-.252,2.344.277,3.73,1.235,1.184.806,2.041.983,2.344.5.176-.3,7.157,6.5,7.157,6.981a1.087,1.087,0,0,1-.378.6c-.3.252-.151.554,1.134,1.991a13.1,13.1,0,0,1,1.512,1.89c0,.227-2.142,2.949-8.8,11.215a53.916,53.916,0,0,0-4.561,6.149,4.968,4.968,0,0,0,.958,1.789,3.415,3.415,0,0,0,2.016,1.562c1.033.277,1.058.252,1.058-.3,0-.68.076-.706.781-.353.4.227.479.176.479-.378s.076-.63.63-.479c.5.126.63.076.63-.353,0-.378.126-.479.5-.378s.5,0,.5-.4c0-.6.1-.63.781-.277.4.227.479.176.479-.353,0-.479.1-.58.5-.479.378.1.5,0,.5-.4,0-.454.1-.5.63-.378s.63.076.63-.378c0-.6.1-.63.781-.277.4.227.479.176.479-.328s.1-.58.63-.479c.5.076.63,0,.63-.4,0-.378.126-.479.5-.378s.5,0,.5-.4c0-.454.1-.5.63-.378.5.126.63.05.63-.353,0-.378.126-.454.63-.353.5.076.63,0,.63-.428,0-.479.076-.5.5-.277.454.227.5.2.5-.378,0-.706.076-.731.781-.378.4.227.479.176.479-.353,0-.58.05-.63.63-.4.554.2.6.176.554-.3-.05-.4.1-.529.655-.554.63-.05,1.235.529,4.788,4.435C40.88-147.013,42.77-145,42.846-145s1.487-1.361,3.15-3.024l3.024-3.049-3.856-3.7a26.884,26.884,0,0,1-3.831-4.158c0-.5.1-.529.781-.176.4.227.479.176.479-.378,0-.58.05-.6.5-.378s.5.2.5-.378c0-.706.076-.731.781-.378.4.227.479.176.479-.378,0-.706.076-.756.806-.353.479.252.5.227.4-.378-.126-.58-.076-.63.454-.5.5.126.6.05.6-.378,0-.6.1-.63.781-.277.4.227.479.176.479-.378s.076-.63.63-.479c.529.126.63.076.63-.378,0-.479.076-.5.5-.277.454.227.5.2.5-.378,0-.706.076-.731.781-.378.4.227.479.176.479-.378,0-.58.05-.6.5-.378s.5.2.5-.378c0-.706.076-.731.781-.378.428.252.479.176.479-.58,0-.706-.2-1.058-1.008-1.789-1.159-1.058-1.865-1.134-3.5-.4a5.36,5.36,0,0,1-1.663.5,6.948,6.948,0,0,1-3.125-2.092,2.842,2.842,0,0,0-3.3-.832l-1.058.353-2.067-2.167-2.067-2.167-2.646,3.251c-1.436,1.789-2.7,3.352-2.8,3.5s-.756-.3-1.562-1.058a9.053,9.053,0,0,0-1.537-1.31,3.094,3.094,0,0,0-.63.3c-.454.3-.832,0-4.007-3.175l-3.5-3.5.5-.68c.6-.832.479-1.109-1.235-3.226-.882-1.084-1.084-1.537-1.033-2.142.076-.907,1.159-1.764,2.823-2.243a34.2,34.2,0,0,1,8.039-.126l1.688.2v-.756c0-.706-.076-.756-1.714-1.134A32.485,32.485,0,0,0,16.939-188.469Z" transform="translate(-0.678 192.225)" fill="#373434"/>
    <path id="Trazado_40" data-name="Trazado 40" d="M174.607-33.141a31.405,31.405,0,0,0-2.9,3.049c-.2.353.025.6,1.336,1.436l1.588,1.008,2.419-2.419,2.445-2.419-.882-1.487a10,10,0,0,0-1.134-1.638A14.7,14.7,0,0,0,174.607-33.141Z" transform="translate(-128.559 77.647)" fill="#373434"/>
  </g>
</svg>
