<svg xmlns="http://www.w3.org/2000/svg" width="57.208" height="57.768" viewBox="0 0 57.208 57.768">
  <g id="Icon_-_Pintura" data-name="Icon - Pintura" transform="translate(57.208 35.163) rotate(140)">
    <path id="Trazado_41" data-name="Trazado 41" d="M10.57,10.775c-.059-.1-.371-1.211-.7-2.471a17.587,17.587,0,0,0-.733-2.432C8.948,5.685,8.87,5.754,8,6.975,7.248,8.04,6.965,8.284,6.643,8.108a4.677,4.677,0,0,1-.684-1.075,2.875,2.875,0,0,0-.615-.948A1.882,1.882,0,0,0,5.06,6.9c-.371,1.661-.44,1.749-.977,1.241-.342-.322-.469-.234-.762.557-.156.42-.274.586-.4.586-.205,0-.205.02-.528-1.661C2.022,5.764,1.9,5.627,1.016,6.106c-.537.283-.655.3-.86.088C.02,6.066,0,5.637,0,3.019V0H27.841V4.738c0,4.21-.02,4.748-.156,4.806-.176.068-.225,0-1.153-1.485-.752-1.221-1-1.514-1.231-1.514a1.739,1.739,0,0,0-.635.518C23.406,8.44,23.445,8.4,23.064,8.4a1.2,1.2,0,0,1-.83-.391,1.144,1.144,0,0,0-1.651-.078c-.537.342-.83.371-2.413.225-.723-.068-.742-.059-1.866.43a8.612,8.612,0,0,1-1.319.5c-.44,0-.791-.4-1.827-2.032a14.292,14.292,0,0,0-1.153-1.68c-.147,0-.166.107-.43,2.52-.283,2.559-.381,2.979-.7,3.028A.289.289,0,0,1,10.57,10.775Z" transform="translate(4.884 39.075)" fill="#373434"/>
    <path id="Trazado_42" data-name="Trazado 42" d="M4.034,38.206c-.606-.283-.742-.615-.791-1.934L3.2,35.187l-1.3-.039C.449,35.119.283,35.05.1,34.4.039,34.191,0,32.54,0,30.43,0,27.02.01,26.8.2,26.5a1.262,1.262,0,0,1,.391-.42c.137-.078,17.1-3.224,17.359-3.224.02,0,.029-.723.029-1.6v-1.6l-.957-.039c-.86-.029-1.006-.059-1.368-.3a2.761,2.761,0,0,1-.674-.674l-.274-.41V1.309l.244-.371A3.043,3.043,0,0,1,15.62.293L16.05,0H18.61c2.452,0,2.569.01,2.823.205a1.9,1.9,0,0,1,.449.586c.186.361.2.606.2,8.977v8.6l-.215.449c-.293.635-.645.821-1.514.821h-.713v2.247c0,2.491-.029,2.638-.635,2.882-.156.068-4.1.821-8.763,1.67L1.758,27.978v4.65H3.2l.039-1.309c.029-1.231.049-1.329.264-1.563a1.707,1.707,0,0,1,.586-.352c.225-.059,5.685-.1,15.249-.1,14.6,0,14.907,0,15.21.2.606.371.615.41.615,4.279v3.507l-.283.391c-.557.772.694.713-15.767.713C4.914,38.391,4.435,38.381,4.034,38.206Z" transform="translate(0 0)" fill="#373434"/>
  </g>
</svg>
