<svg xmlns="http://www.w3.org/2000/svg" width="29.615" height="55" viewBox="0 0 29.615 55">
  <g id="Icon_-_Caldera" data-name="Icon - Caldera" transform="translate(-412 1149.833)">
    <path id="Trazado_50" data-name="Trazado 50" d="M423.4-1149.782a39.173,39.173,0,0,0-6.428.743,24.627,24.627,0,0,0-2.7.815,4.369,4.369,0,0,0-2.143,1.553c-.124.22-.124.4-.124,16.6v16.387l.143.242a2.323,2.323,0,0,0,.7.765.276.276,0,0,1,.149.083,5.762,5.762,0,0,0,1.472.743c.267.088.776.253,1.137.375a10.535,10.535,0,0,0,1.3.336,5.5,5.5,0,0,1,.7.154,27.632,27.632,0,0,0,3.385.485,84.679,84.679,0,0,0,12.5-.083,27.778,27.778,0,0,0,3.043-.518,14.636,14.636,0,0,0,3.385-1.09,2.913,2.913,0,0,0,1.646-1.547c.05-.209.062-4.714.05-16.5l-.019-16.216-.168-.275c-.838-1.393-4.173-2.467-9.055-2.918A89.729,89.729,0,0,0,423.4-1149.782Zm2.515,6.514a5.159,5.159,0,0,1,1.77.005l.36.088c.2-.116.106-.011.106.005s.1.066.217.1a3.942,3.942,0,0,1,.671.331,3.461,3.461,0,0,1,1.758,3.634l-.106.457-.025.038-.155.336a3.911,3.911,0,0,1-.466.7,4.345,4.345,0,0,1-4.08,1.365,4.025,4.025,0,0,1-2.844-1.982l-.186-.38a1.886,1.886,0,0,1-.106-.385,3.732,3.732,0,0,1,.118-1.955,3.651,3.651,0,0,1,1.95-1.993c.3-.138.565-.253.584-.264,0,0-.015-.109.093-.016Z" transform="translate(0 0)" fill="#373434"/>
    <path id="Trazado_51" data-name="Trazado 51" d="M598.534-1020.265a3.835,3.835,0,0,0-2.118,1.465,3.537,3.537,0,0,0-.416,1.415,3.56,3.56,0,0,0,.416,1.421,3.389,3.389,0,0,0,2.925,1.531,3.254,3.254,0,0,0,2.3-.8,3.019,3.019,0,0,0,.938-1.3c.075-.209.068-.22-.13-.4-.242-.226-.3-.231-.3-.044a2.617,2.617,0,0,1-.6,1.178,2.955,2.955,0,0,1-4.943-1.03l-.081-.35c-.018-.049-.031-.08,0-.427a2.229,2.229,0,0,1,.838-1.5,3.022,3.022,0,0,1,1.372-.694,4.6,4.6,0,0,1,.664-.077,3.089,3.089,0,0,1,1.907.716,2.307,2.307,0,0,1,.857,1.5c.056.38.1.479.255.628.106.1.217.165.248.143a3.054,3.054,0,0,0-.143-1.476,3.2,3.2,0,0,0-2.093-1.823,2.527,2.527,0,0,0-.984-.179A3.268,3.268,0,0,0,598.534-1020.265Z" transform="translate(-172.573 -122.358)" fill="#373434"/>
    <path id="Trazado_52" data-name="Trazado 52" d="M641.913-1006.816c-.019.072-.093.49-.161.925a3.315,3.315,0,0,1-.211.881.459.459,0,0,0,.161.754c.515.237,1.043-.347.677-.754a2.641,2.641,0,0,1-.255-1.013c-.075-.485-.149-.892-.161-.9S641.931-1006.888,641.913-1006.816Z" transform="translate(-215.157 -135.037)" fill="#373434"/>
    <path id="Trazado_53" data-name="Trazado 53" d="M483.17-438.665c.037.149.056.352.255,2.274.056.5.137,1.217.186,1.6s.093.7.093.727,1.192.044,2.646.044a12.346,12.346,0,0,0,2.6-.072c-.037-.05-.031-.05.05.005s1.584.066,7.229.055l7.136-.017.074-.633c.044-.347.106-.92.137-1.266s.124-1.123.2-1.724a9.43,9.43,0,0,0,.106-1.112,15.926,15.926,0,0,0-1.608.275,1.327,1.327,0,0,1-.31.055c-.149.017-.509.066-.8.11a45.366,45.366,0,0,1-7.763.385c-3.062-.005-3.968-.022-4.906-.1-1.273-.1-2.577-.264-3.478-.424l-1.118-.193c-.292-.05-.578-.1-.646-.116C483.151-438.82,483.139-438.8,483.17-438.665Zm10.936,1.5a1.161,1.161,0,0,1,.677.683.868.868,0,0,1-.025.826,1.048,1.048,0,0,1-.708.65,1.45,1.45,0,0,1-1.515-.286,1.172,1.172,0,0,1,.068-1.69A1.687,1.687,0,0,1,494.106-437.168Z" transform="translate(-66.736 -671.878)" fill="#373434"/>
    <path id="Trazado_54" data-name="Trazado 54" d="M634.7-405.932a.811.811,0,0,0-.578.875,1,1,0,0,0,1.658.589.769.769,0,0,0,.149-1.156A1.042,1.042,0,0,0,634.7-405.932Z" transform="translate(-208.327 -702.854)" fill="#373434"/>
    <path id="Trazado_55" data-name="Trazado 55" d="M497.85-341.307v2.7l-.137.017c-.137.016-.143.039-.155.694l-.012.677-.683.011-.689.011v-.947c0-.787-.019-.958-.1-1.03s-.267-.088-1.093-.088c-.77,0-.987.016-.969.066s.193.5.4,1.03c.3.787.348.964.273.986a1.077,1.077,0,0,0-.261.193c-.149.138-.174.209-.174.479a.611.611,0,0,0,.4.639c.112.055.093.11-.267,1.057-.211.545-.385,1.013-.385,1.03a8.576,8.576,0,0,0,.987.028c1.267,0,1.186.083,1.186-1.173v-.925l.689.017.683.016.012.661c.012.639.019.661.155.677s.137.039.137.567v.545h2.54l.019-.54c.019-.507.025-.534.161-.551l.137-.017V-338.6h-.31v-4.758l-.168-.165-.174-.171.174.132.168.132V-344h-.64l.118.121.118.127-.161-.127c-.149-.116-.211-.121-1.068-.121h-.913Z" transform="translate(-76.907 -761.461)" fill="#373434"/>
    <path id="Trazado_56" data-name="Trazado 56" d="M698.311-341.3v2.7h-.155c-.149,0-.155.011-.155.369,0,.3.025.391.143.507l.137.143-.137-.1-.143-.1v3.32h.311v1.1h2.546v-1.1h.155c.143,0,.155-.022.155-.259a.5.5,0,0,0-.168-.424l-.174-.171.174.132.168.132v-.787h1.36l.019.969c.019.881.031.975.137,1.046a3.106,3.106,0,0,0,1.1.077h.981l-.335-.842c-.18-.457-.36-.909-.4-.991-.093-.215-.087-.248.056-.286a.818.818,0,0,0,.435-.639.834.834,0,0,0-.546-.694c-.025-.005.416-1.167.646-1.712.1-.231.118-.341.068-.341s-.491-.005-1.006,0c-1.223.005-1.149-.066-1.149,1.151v.914h-1.366v-1.4h-.311V-344H700.1c-.7,0-.77.011-.913.121l-.161.127.118-.127.118-.121h-.95Z" transform="translate(-268.238 -761.461)" fill="#373434"/>
  </g>
</svg>
