<svg xmlns="http://www.w3.org/2000/svg" width="39.122" height="50" viewBox="0 0 39.122 50">
  <path d="M28.147,2.987c-.037-.044-.085-.078-.11-.111l-.012-.011a2.6,2.6,0,0,0-1.7-.614,2.551,2.551,0,0,0-1.7.614l-.012.011a1.04,1.04,0,0,0-.11.111c-.746.7-1.687,1.606-2.74,2.69a73.949,73.949,0,0,0-7.154,8.571c-4.084,5.781-7.694,12.957-7.84,20.435,0,.144-.012.3-.012.446a15.3,15.3,0,0,0,1.332,6.227A16.643,16.643,0,0,0,9.951,44.5,20.338,20.338,0,0,0,26.312,52.25c10.812,0,19.569-7.667,19.569-17.121,0-14.275-12.867-27.611-17.734-32.143ZM26.312,46a13.264,13.264,0,0,1-5.37-1.127C29,43.267,35.424,37.653,37.551,30.421a10.34,10.34,0,0,1,1,4.419C38.542,41,33.063,46,26.312,46Z" transform="translate(-6.759 -2.25)" fill="#373434"/>
</svg>
