<svg xmlns="http://www.w3.org/2000/svg" width="20" height="20" viewBox="0 0 20 20">
  <path id="phone-alt" d="M10,0A10,10,0,1,0,20,10,10,10,0,0,0,10,0ZM6.406,3.972a.609.609,0,0,1,.533.329L8.307,6.894a.752.752,0,0,1-.153.856l-.626.626a.3.3,0,0,0-.064.178,5.344,5.344,0,0,0,1.611,2.377,5.344,5.344,0,0,0,2.23,1.577.352.352,0,0,0,.326-.032l.728-.741a.833.833,0,0,1,.883-.127h.012l2.467,1.456a.594.594,0,0,1,.141.933l-1.7,1.686a1.233,1.233,0,0,1-.908.344,7.862,7.862,0,0,1-3.9-1.468A15.034,15.034,0,0,1,4.806,9.6a6.421,6.421,0,0,1-.831-2.829,1.238,1.238,0,0,1,.346-.919l1.7-1.7a.662.662,0,0,1,.387-.176Z" fill="#fff"/>
</svg>
