<svg xmlns="http://www.w3.org/2000/svg" viewBox="0 0 30 30">
  <path id="instagram" d="M15,0c-4.075,0-4.583.018-6.184.09a11.071,11.071,0,0,0-3.641.7,7.34,7.34,0,0,0-2.657,1.73A7.333,7.333,0,0,0,.787,5.175a11.049,11.049,0,0,0-.7,3.641C.015,10.417,0,10.925,0,15s.018,4.583.09,6.184a11.076,11.076,0,0,0,.7,3.641,7.357,7.357,0,0,0,1.73,2.658,7.335,7.335,0,0,0,2.658,1.73,11.085,11.085,0,0,0,3.641.7c1.6.075,2.109.09,6.184.09s4.583-.018,6.184-.09a11.1,11.1,0,0,0,3.641-.7,7.666,7.666,0,0,0,4.388-4.387,11.076,11.076,0,0,0,.7-3.641c.075-1.6.09-2.108.09-6.184s-.018-4.583-.09-6.184a11.088,11.088,0,0,0-.7-3.641,7.363,7.363,0,0,0-1.73-2.657A7.309,7.309,0,0,0,24.825.788a11.032,11.032,0,0,0-3.641-.7C19.583.015,19.075,0,15,0Zm0,2.7c4,0,4.481.02,6.063.088a8.27,8.27,0,0,1,2.783.518,4.937,4.937,0,0,1,2.848,2.846,8.271,8.271,0,0,1,.516,2.783c.072,1.583.087,2.057.087,6.062s-.018,4.481-.093,6.062a8.436,8.436,0,0,1-.526,2.783,4.763,4.763,0,0,1-1.124,1.727,4.68,4.68,0,0,1-1.725,1.12,8.333,8.333,0,0,1-2.794.516c-1.592.072-2.062.087-6.073.087s-4.483-.018-6.073-.093a8.511,8.511,0,0,1-2.795-.526,4.645,4.645,0,0,1-1.724-1.124,4.555,4.555,0,0,1-1.125-1.725,8.533,8.533,0,0,1-.525-2.794c-.057-1.575-.076-2.062-.076-6.055s.02-4.483.076-6.076A8.5,8.5,0,0,1,3.244,6.11,4.437,4.437,0,0,1,4.369,4.384,4.441,4.441,0,0,1,6.093,3.262,8.3,8.3,0,0,1,8.87,2.736c1.593-.057,2.063-.075,6.073-.075L15,2.7Zm0,4.6A7.7,7.7,0,1,0,22.7,15,7.7,7.7,0,0,0,15,7.3ZM15,20a5,5,0,1,1,5-5A5,5,0,0,1,15,20ZM24.807,6.994a1.8,1.8,0,0,1-3.6,0,1.8,1.8,0,0,1,3.6,0Z" fill="#fff"/>
</svg>
