<svg xmlns="http://www.w3.org/2000/svg" viewBox="0 0 35 30">
  <path id="twitter-bird" d="M35,3.553a15.007,15.007,0,0,1-3.587,3.912q.021.434.021.981a22.8,22.8,0,0,1-.84,6.084,22.275,22.275,0,0,1-2.565,5.83,22.687,22.687,0,0,1-4.11,4.934,18.1,18.1,0,0,1-5.734,3.427A19.96,19.96,0,0,1,11.007,30,19.234,19.234,0,0,1,0,26.6a14.724,14.724,0,0,0,1.713.1,13.618,13.618,0,0,0,8.919-3.246,6.737,6.737,0,0,1-4.17-1.512,7.449,7.449,0,0,1-2.535-3.749,6.813,6.813,0,0,0,3.242-.127,6.943,6.943,0,0,1-4.122-2.611A7.581,7.581,0,0,1,1.411,10.64v-.093a6.806,6.806,0,0,0,3.253.948,7.4,7.4,0,0,1-2.333-2.7,7.718,7.718,0,0,1-.862-3.6,7.761,7.761,0,0,1,.971-3.807A20.7,20.7,0,0,0,8.986,6.977,19.147,19.147,0,0,0,17.237,9.3a7.8,7.8,0,0,1-.189-1.724,7.506,7.506,0,0,1,2.1-5.356,6.925,6.925,0,0,1,10.318.169A13.857,13.857,0,0,0,34.029.551a7.27,7.27,0,0,1-3.154,4.193A13.768,13.768,0,0,0,35,3.553Z" fill="#fff"/>
</svg>
