<svg xmlns="http://www.w3.org/2000/svg" width="20" height="20" viewBox="0 0 20 20">
  <path id="webmail" d="M13.027,10l5.391-5.391a9.974,9.974,0,0,1,0,10.781ZM2.324,3.594A10.036,10.036,0,0,1,5.733.957a9.991,9.991,0,0,1,8.535,0,10.023,10.023,0,0,1,3.408,2.637L10,11.269Zm-.742,11.8a9.974,9.974,0,0,1,0-10.781L6.973,10Zm6.269-4.512,1.387,1.406a.879.879,0,0,0,.3.156,1.1,1.1,0,0,0,.322.058H10a1.027,1.027,0,0,0,.762-.215l1.387-1.406,5.527,5.527a10.036,10.036,0,0,1-3.408,2.637,9.989,9.989,0,0,1-8.535,0,10.033,10.033,0,0,1-3.408-2.637Z" fill="#fff"/>
</svg>
